<?xml version="1.0" encoding="UTF-8" standalone="no"?><svg xmlns="http://www.w3.org/2000/svg" xmlns:xlink="http://www.w3.org/1999/xlink" fill="#ff4f28" height="440.3" preserveAspectRatio="xMidYMid meet" version="1" viewBox="-3.2 -2.1 446.3 440.3" width="446.3" zoomAndPan="magnify"><g><g id="change1_1"><path d="M433.4,140.1c-0.3-0.5-0.7-0.9-1-1.4c-6.6-8.4-17.7-13-28.2-11.8c-11.6,1.3-20.2,7-24.8,10.3 c0,0-28.3,20.1-74.6,39.4c-7.9,3.3-9.2,2-9.5,1.6s-0.4-1-0.1-1.8c5.7-19.7,11.9-39.4,15.6-59.5c4.5-22.3,7.3-44.9,8.4-67.6 c0.6-11.5,0.5-23.7-5.6-33.4c-9.5-15.2-33.8-18-46.6-5.4c-8,7.9-10.9,19.5-13.3,30.5c-3.1,14-6,28.1-8.6,42.2 c-1.3,7.1-2.3,14.3-3.2,21.5c-1.2,9.5-1.7,15.7-4.1,16.2c-0.9,0.2-2.5-0.1-5.1-4.6c-2.7-4.6-5.3-9.2-8.1-13.7 c-5.1-8.4-10.4-16.6-16-24.6c-11.1-16.1-23.3-31.5-36.5-46.1c-7.8-8.7-16.4-17.3-27.3-21.3c-8.8-3.2-19.4-2.6-27,3.1 c-8.1,5.9-15.1,11-14.3,22.3c0.5,7,3.7,13.6,6.9,19.9c5.9,11.3,12.4,22.4,19.4,33.1c0.1,0.2,4.5,6.6,13.1,19.3 c6.3,9.2,11.5,16.9,10.6,17.6c-0.4,0.3-1.4-1.2-4.5-2.7c-3-1.4-5.9-2.8-8.9-4c-6-2.4-12.1-4.6-18.3-6.6c-12.3-4.1-24.9-7.4-37.6-10 c-7.8-1.6-15.6-2.9-23.4-3.9c-9.4-1.2-19.3-2-28.1,1.5c-10,4-17.6,13.6-19.2,24.3c-1.5,10.7,3,22,11.5,28.7 c6.7,5.2,15.2,7.5,23.4,9.7c28.3,7.8,56,17.5,83,29.2c-2.4-1-12.5,4.2-15.1,5.1c-5.5,2-10.9,4.1-16.3,6.3 c-10.8,4.4-21.4,9.3-31.7,14.6c-19.3,9.9-42.4,21.3-56.8,38C1,268.4-1.1,286.4,9.7,299.3c7,8.3,18.4,12.7,29.1,11.1 c9.4-1.4,17.7-6.9,25.8-11.9c20.6-12.8,42.5-23.5,65.3-31.9c7.6-2.8,14.7-8.5,17.4-6c2.8,2.6-1.7,11.6-3.3,15 c-20.2,42-23.4,96.8-23.9,102.1c-1.6,15.7-1.8,33.2,8.4,45.2c13,15.3,41.2,12.8,51.3-4.6c4.3-7.4,5.4-16.2,6.6-24.7 c3.8-26.8,7.3-40.2,7.3-40.2c5.6-33.6,7-39.5,9.7-39.7c2.7-0.3,4,5.5,13.5,22.9c2.4,4.5,7.5,13.7,14.7,24.8 c10.3,16,21.7,31.1,34.3,45.4c8.3,9.4,17.9,18.9,30.3,21.2c18.1,3.2,36.9-13.8,35.5-32.1c-0.6-7.2-2.4-12.4-7.7-21.6 c-10.8-18.7-39.7-56.9-40.7-61.5c0,0,0-0.1,0-0.2c0.8-1.8,21.8,7.6,46.3,15.2c5.1,1.6,24.3,6.6,49.3,10.6 c9.4,1.5,19.4,2.6,28.4-0.7c17.7-6.6,24.9-32,13.1-46.8c-6.1-7.7-13.5-11.8-26.4-16.1c-53.7-17.7-80.7-20.1-81.2-26.7 c-0.4-5,15-7,49.6-23.1c2-0.9,23.4-11.9,49.2-28.9c10.6-7,21.6-15.2,25.9-27.2C440.7,159.5,439.2,148.4,433.4,140.1z" fill="#ff4f28"/></g><g id="change2_1"><path d="M152,435.5c-10.1,0-19.4-4-25.4-11c-10.8-12.8-10.6-31-9-47.1c0-0.3,0.1-0.8,0.1-1.6c3.2-39.8,11.7-75.8,24-101.4l0.3-0.6 c4-8.5,3.9-10.8,3.6-11.5c-1.1-0.2-4.6,1.6-7,2.9c-2.4,1.2-5.1,2.6-7.8,3.6c-22.6,8.3-44.4,19-64.8,31.7l-1.8,1.1 c-7.7,4.8-15.7,9.8-25,11.1c-11.5,1.7-23.8-3-31.4-12c-11-13.2-10.3-32.3,1.8-46.4c14.1-16.3,35.8-27.5,55-37.3l2.5-1.3 c10.5-5.4,21.2-10.3,31.9-14.7c5.8-2.3,11.1-4.4,16.4-6.3c0.6-0.2,1.8-0.7,3.1-1.3c1.8-0.8,3.5-1.5,4.9-2.1 c-24.4-10.2-49.8-19-75.7-26.1c-8-2.2-17.1-4.6-24.3-10.1c-9.2-7.2-14.1-19.4-12.4-31c1.7-11.6,9.9-21.9,20.7-26.3 C41.2,94,51.8,95,61,96.1c7.8,1,15.8,2.3,23.6,3.9c13.2,2.7,25.9,6.1,37.9,10.1c6.2,2,12.4,4.2,18.4,6.7c2.2,0.9,4.4,1.9,6.6,2.9 c-2.1-3.3-4.8-7.2-6.8-10.1c-4.6-6.8-8-11.8-10.2-15c-2.2-3.3-2.8-4.1-3-4.4c-7-10.7-13.6-21.9-19.5-33.3 c-3.5-6.9-6.7-13.6-7.2-20.9c-0.9-12.7,7-18.4,15.3-24.5c7.8-5.8,19-7.2,29.3-3.4c11.8,4.3,20.8,13.6,28.3,22 c13.2,14.7,25.6,30.3,36.7,46.4c5.4,7.7,10.7,15.8,16.1,24.7c2,3.2,4,6.6,5.9,9.9c0.7,1.3,1.5,2.6,2.2,3.9c1.1,1.9,1.9,2.8,2.3,3.1 c0.8-1.7,1.4-6.6,1.9-11l0.3-2.8c1.1-8.8,2.1-15.5,3.2-21.6c2.5-13.4,5.4-27.6,8.6-42.3c2.6-12,5.7-23.5,14-31.7 c6.6-6.5,16.5-9.6,26.7-8.4c10.2,1.2,18.9,6.4,23.8,14.3c6.6,10.6,6.6,23.5,6,34.9c-1.1,22.8-3.9,45.7-8.4,68 c-3.1,17-8.1,33.9-12.9,50.2c-0.8,2.9-1.7,5.7-2.5,8.6c1-0.2,2.9-0.6,6-1.9c45.5-19,73.8-38.9,74.1-39.1c5.5-4,14.3-9.4,26-10.7 c11.4-1.3,23.3,3.7,30.4,12.7l0.2,0.3c0.1,0.2,0.2,0.3,0.3,0.5c0.2,0.2,0.4,0.5,0.6,0.9c6.2,8.9,7.9,20.7,4.4,31 c-4.6,13-16.3,21.5-26.9,28.5c-26.1,17.2-47.4,28.1-49.6,29.1c-14.9,6.9-26.1,11.2-34.3,14.3c-6.7,2.6-13,5-13.8,6.3 c0.8,2.2,13.3,5.5,25.5,8.7c13.2,3.5,31.2,8.3,54,15.8c14.2,4.7,21.4,9.2,27.6,16.9c6,7.5,7.9,18.2,5,28.6 c-2.9,10.5-10.1,18.7-19.2,22.1c-9.8,3.6-20.4,2.3-29.7,0.8c-26-4.2-45-9.2-49.7-10.7c-11-3.4-21.2-7.2-29.5-10.2 c-4.3-1.6-8.6-3.2-11.7-4.2c3,4.8,8.8,13.2,14.2,20.8c8.8,12.6,18.8,26.9,24.3,36.4c5.4,9.4,7.4,14.9,8,22.6 c0.7,9.4-3.5,19.1-11.2,26.2c-7.8,7-17.9,10.3-27.2,8.6c-12.9-2.4-22.9-12-31.7-22c-12.6-14.3-24.2-29.7-34.5-45.7 c-7.3-11.2-12.4-20.5-14.8-25c-3.4-6.2-5.8-11-7.5-14.5c-1.5-3-2.8-5.6-3.6-6.7c-1.7,3.3-4.2,17.7-7.5,37.2v0.2 c0,0.1-3.5,13.6-7.2,39.9l-0.1,1c-1.2,8.4-2.4,17.1-6.8,24.6c-5.1,8.9-15.1,14.8-26.5,15.8C154.3,435.5,153.1,435.5,152,435.5z M145.6,257.5c1.3,0,2.4,0.4,3.4,1.3c3.7,3.4,0.7,10.7-2.5,17.3l-0.3,0.6c-12.1,25.1-20.4,60.5-23.5,99.6c-0.1,0.7-0.1,1.3-0.1,1.6 c-1.5,15.1-1.8,32,7.8,43.3c5.6,6.6,14.8,10,24.6,9.1s18.3-5.9,22.6-13.3c3.9-6.7,5-14.9,6.1-22.8l0.1-1c3.6-25.7,7-38.9,7.3-40.4 c2.7-16,4.5-26.5,6-32.4c1.2-4.9,2.5-9,6-9.2c3.4-0.4,4.9,2.6,8.5,9.9c1.7,3.5,4.1,8.2,7.4,14.3c2.4,4.5,7.4,13.6,14.6,24.6 c10.2,15.8,21.7,31,34.1,45.1c8.2,9.3,17.5,18.3,28.9,20.4c7.7,1.4,16.3-1.4,23-7.4c6.6-6,10.2-14.2,9.6-22 c-0.6-6.9-2.3-11.7-7.4-20.5c-5.4-9.3-15.3-23.5-24-36c-11.6-16.6-16.4-23.7-16.9-26.2l-0.1-0.3v-1l0.2-0.5c1.2-2.7,4.6-1.6,8-0.6 c3,1,7.2,2.5,12.1,4.3c8.2,3,18.3,6.7,29.2,10.1c5.7,1.8,25.2,6.7,49,10.5c8.6,1.4,18.5,2.6,27.1-0.6c7.6-2.8,13.6-9.9,16.1-18.8 c2.4-8.8,0.9-17.8-4.1-24.1c-5.5-6.9-12.1-10.9-25.2-15.3c-22.7-7.5-40.6-12.2-53.7-15.7c-20.3-5.4-28.8-7.6-29.2-13.2 c-0.4-4.7,4.7-6.7,17-11.3c8.1-3.1,19.3-7.3,34-14.2c2-0.9,23.5-12,48.9-28.7c9.9-6.5,20.8-14.5,24.9-26c3-8.7,1.5-18.9-3.8-26.5 l-0.1-0.1c-0.1-0.2-0.2-0.3-0.3-0.5c-0.2-0.2-0.4-0.5-0.6-0.8c-6.1-7.6-16.2-11.9-25.9-10.8c-10.5,1.2-18.5,6.2-23.6,9.8 c-0.3,0.2-29.1,20.5-75.1,39.7c-7,2.9-10.7,3.1-12.5,0.8c-0.8-1.1-1-2.6-0.5-4.1c0.9-3.1,1.8-6.3,2.7-9.4 c4.8-16.2,9.7-33,12.8-49.8c4.5-22.1,7.3-44.7,8.4-67.3c0.6-10.6,0.6-22.6-5.2-31.9c-4.1-6.5-11.6-11-20.2-12s-17.1,1.6-22.6,7 c-7.3,7.2-10.2,18-12.6,29.3c-3.2,14.6-6.1,28.8-8.6,42.1c-1.1,6.1-2.1,12.6-3.2,21.4l-0.3,2.8c-1.2,9.5-1.8,14.7-5.7,15.6 c-3.5,0.8-6.1-2.9-7.8-5.8c-0.7-1.3-1.5-2.6-2.2-3.9c-1.9-3.2-3.8-6.6-5.8-9.8C217,95,211.8,87,206.5,79.3 c-11-15.9-23.2-31.4-36.3-45.9c-7.1-7.9-15.6-16.7-26.3-20.6c-8.7-3.2-18.2-2.1-24.6,2.8c-7.8,5.7-14,10.2-13.3,20.1 c0.5,6.3,3.3,12.3,6.6,18.9c5.9,11.2,12.3,22.3,19.3,32.9l0.1,0.1c0.3,0.4,1.3,2,2.8,4.1c2.2,3.2,5.6,8.2,10.2,15 c3.1,4.5,6,8.8,8.1,12.1c2.5,3.9,4.4,7.1,2,8.9c-1.7,1.3-3.4,0-4.1-0.5c-0.7-0.5-1.5-1.2-3-1.9l-1.4-0.7c-2.5-1.2-4.9-2.3-7.3-3.3 c-5.9-2.4-12-4.6-18.1-6.5c-11.8-3.9-24.4-7.3-37.3-9.9c-7.7-1.6-15.5-2.9-23.2-3.9c-8.6-1.1-18.5-2-26.9,1.3 c-9.2,3.7-16.2,12.5-17.7,22.3c-1.4,9.9,2.8,20.2,10.6,26.4c6.3,4.9,14.5,7.1,22.5,9.2c28.6,7.9,56.6,17.7,83.3,29.3 c0.8,0.7,1.2,1.8,0.9,2.8c-0.4,1.2-1.6,1.9-2.9,1.8l0.2,0.1l0,0c-1.5-0.2-7.7,2.6-10.1,3.6c-1.5,0.7-2.7,1.2-3.5,1.5 c-5.2,1.9-10.5,3.9-16.2,6.3c-10.5,4.3-21.1,9.2-31.5,14.5l-2.6,1.3c-18.8,9.6-40,20.5-53.5,36.1c-10.5,12.3-11.2,28.7-1.8,40 c6.5,7.7,17,11.7,26.8,10.2c8.2-1.2,15.8-5.9,23.1-10.5l1.8-1.1c20.7-12.9,42.8-23.7,65.7-32.1c2.5-0.9,4.9-2.2,7.3-3.4 C139.8,259.1,143,257.5,145.6,257.5z" fill="inherit"/></g></g></svg>