<?xml version="1.0" encoding="UTF-8" standalone="no"?><svg xmlns="http://www.w3.org/2000/svg" xmlns:xlink="http://www.w3.org/1999/xlink" fill="#000000" height="73.2" preserveAspectRatio="xMidYMid meet" version="1" viewBox="0.0 0.0 93.0 73.2" width="93" zoomAndPan="magnify"><g id="change1_1"><path d="M89.7,0.5H3.3c-1.5,0-2.8,1.6-2.8,3.6v59.4c0,2,1.3,3.6,2.8,3.6h36.5h1.8l5.4,5.4l5.4-5.4h37.3 c1.5,0,2.8-1.6,2.8-3.6V4.1C92.5,2.1,91.2,0.5,89.7,0.5z" fill="#ededed"/></g><g id="change2_1"><path d="M47,73.2l-5.6-5.6H3.3c-1.8,0-3.3-1.8-3.3-4.1V4.1C0,1.8,1.5,0,3.3,0h86.4C91.5,0,93,1.8,93,4.1v59.4 c0,2.3-1.5,4.1-3.3,4.1H52.6L47,73.2z M3.3,1C2.1,1,1,2.4,1,4.1v59.4c0,1.7,1.1,3.1,2.3,3.1h38.5l5.2,5.2l5.2-5.2h37.5 c1.2,0,2.3-1.4,2.3-3.1V4.1C92,2.4,90.9,1,89.7,1H3.3z" fill="#0c2337"/></g><g id="change3_1"><path d="M63.5,43.9c-6.4,6.1-17,11.4-17,11.4s-10.6-5.3-17-11.4c-9.8-9.5-11.7-26.7-1.5-30.7 c10.7-4.3,18.4,5.3,18.4,5.3s7.7-9.6,18.4-5.3C75.1,17.2,73.3,34.4,63.5,43.9z" fill="#004d8f"/></g></svg>